name rise44.8762peak52.3436fall86.788.mot
datacolumns 19
datarows 24
range 13.87327500000000 13.91161300000000
endheader
time	ground_force1_vx	ground_force1_vy	ground_force1_vz	ground_force1_px	ground_force1_py	ground_force1_pz	ground_force2_vx	ground_force2_vy	ground_force2_vz	ground_force2_px	ground_force2_py	ground_force2_pz	ground_torque1_x	ground_torque1_y	ground_torque1_z	ground_torque2_x	ground_torque2_y	ground_torque2_z	
13.87327500000000	5.12614200000000	705.19293300000004	45.39236500000000	0.16260400000000	0.00000000000000	0.11109900000000	0.00000000000000	0.00000000000000	0.00000000000000	0.00000000000000	0.00000000000000	0.00000000000000	0.00000000000000	13.11693800000000	0.00000000000000	0.00000000000000	0.00000000000000	0.00000000000000	
13.87494600000000	4.77072000000000	706.13687600000003	45.46163700000000	0.16164400000000	0.00000000000000	0.11115300000000	0.00000000000000	0.00000000000000	0.00000000000000	0.00000000000000	0.00000000000000	0.00000000000000	0.00000000000000	13.16592400000000	0.00000000000000	0.00000000000000	0.00000000000000	0.00000000000000	
13.87661100000000	4.40726000000000	707.09439999999995	45.53293700000000	0.16067600000000	0.00000000000000	0.11120500000000	0.00000000000000	0.00000000000000	0.00000000000000	0.00000000000000	0.00000000000000	0.00000000000000	0.00000000000000	13.21748200000000	0.00000000000000	0.00000000000000	0.00000000000000	0.00000000000000	
13.87828100000000	4.03538600000000	708.06377399999997	45.60606400000000	0.15970000000000	0.00000000000000	0.11125800000000	0.00000000000000	0.00000000000000	0.00000000000000	0.00000000000000	0.00000000000000	0.00000000000000	0.00000000000000	13.27159300000000	0.00000000000000	0.00000000000000	0.00000000000000	0.00000000000000	
13.87995000000000	3.65474200000000	709.04341299999999	45.68082500000000	0.15871700000000	0.00000000000000	0.11130900000000	0.00000000000000	0.00000000000000	0.00000000000000	0.00000000000000	0.00000000000000	0.00000000000000	0.00000000000000	13.32823800000000	0.00000000000000	0.00000000000000	0.00000000000000	0.00000000000000	
13.88160800000000	3.26498600000000	710.03188100000000	45.75703900000000	0.15772700000000	0.00000000000000	0.11136000000000	0.00000000000000	0.00000000000000	0.00000000000000	0.00000000000000	0.00000000000000	0.00000000000000	0.00000000000000	13.38740300000000	0.00000000000000	0.00000000000000	0.00000000000000	0.00000000000000	
13.88327900000000	2.86579500000000	711.02789600000006	45.83453800000000	0.15673200000000	0.00000000000000	0.11141000000000	0.00000000000000	0.00000000000000	0.00000000000000	0.00000000000000	0.00000000000000	0.00000000000000	0.00000000000000	13.44907400000000	0.00000000000000	0.00000000000000	0.00000000000000	0.00000000000000	
13.88494300000000	2.45686200000000	712.03033400000004	45.91316500000000	0.15573100000000	0.00000000000000	0.11145900000000	0.00000000000000	0.00000000000000	0.00000000000000	0.00000000000000	0.00000000000000	0.00000000000000	0.00000000000000	13.51324000000000	0.00000000000000	0.00000000000000	0.00000000000000	0.00000000000000	
13.88660900000000	2.03790000000000	713.03822800000000	45.99277500000000	0.15472400000000	0.00000000000000	0.11150800000000	0.00000000000000	0.00000000000000	0.00000000000000	0.00000000000000	0.00000000000000	0.00000000000000	0.00000000000000	13.57988800000000	0.00000000000000	0.00000000000000	0.00000000000000	0.00000000000000	
13.88828300000000	1.60864100000000	714.05077200000005	46.07323500000000	0.15371400000000	0.00000000000000	0.11155500000000	0.00000000000000	0.00000000000000	0.00000000000000	0.00000000000000	0.00000000000000	0.00000000000000	0.00000000000000	13.64900800000000	0.00000000000000	0.00000000000000	0.00000000000000	0.00000000000000	
13.88994200000000	1.16883700000000	715.06731800000000	46.15442500000000	0.15270000000000	0.00000000000000	0.11160200000000	0.00000000000000	0.00000000000000	0.00000000000000	0.00000000000000	0.00000000000000	0.00000000000000	0.00000000000000	13.72058900000000	0.00000000000000	0.00000000000000	0.00000000000000	0.00000000000000	
13.89161300000000	0.71826000000000	716.08738200000005	46.23623700000000	0.15168300000000	0.00000000000000	0.11164700000000	0.00000000000000	0.00000000000000	0.00000000000000	0.00000000000000	0.00000000000000	0.00000000000000	0.00000000000000	13.79461800000000	0.00000000000000	0.00000000000000	0.00000000000000	0.00000000000000	
13.89328200000000	0.25670200000000	717.11063400000000	46.31857800000000	0.15066300000000	0.00000000000000	0.11169200000000	0.00000000000000	0.00000000000000	0.00000000000000	0.00000000000000	0.00000000000000	0.00000000000000	0.00000000000000	13.87108400000000	0.00000000000000	0.00000000000000	0.00000000000000	0.00000000000000	
13.89495400000000	-0.21602100000000	718.13690299999996	46.40136500000000	0.14964100000000	0.00000000000000	0.11173500000000	0.00000000000000	0.00000000000000	0.00000000000000	0.00000000000000	0.00000000000000	0.00000000000000	0.00000000000000	13.94997200000000	0.00000000000000	0.00000000000000	0.00000000000000	0.00000000000000	
13.89661500000000	-0.70007300000000	719.16616899999997	46.48453000000000	0.14861800000000	0.00000000000000	0.11177700000000	0.00000000000000	0.00000000000000	0.00000000000000	0.00000000000000	0.00000000000000	0.00000000000000	0.00000000000000	14.03126600000000	0.00000000000000	0.00000000000000	0.00000000000000	0.00000000000000	
13.89827800000000	-1.19559200000000	720.19856000000004	46.56801700000000	0.14759300000000	0.00000000000000	0.11181900000000	0.00000000000000	0.00000000000000	0.00000000000000	0.00000000000000	0.00000000000000	0.00000000000000	0.00000000000000	14.11494900000000	0.00000000000000	0.00000000000000	0.00000000000000	0.00000000000000	
13.89994700000000	-1.70269600000000	721.23434999999995	46.65178300000000	0.14656800000000	0.00000000000000	0.11185800000000	0.00000000000000	0.00000000000000	0.00000000000000	0.00000000000000	0.00000000000000	0.00000000000000	0.00000000000000	14.20099900000000	0.00000000000000	0.00000000000000	0.00000000000000	0.00000000000000	
13.90160900000000	-2.22147500000000	722.27394800000002	46.73580000000000	0.14554200000000	0.00000000000000	0.11189700000000	0.00000000000000	0.00000000000000	0.00000000000000	0.00000000000000	0.00000000000000	0.00000000000000	0.00000000000000	14.28939200000000	0.00000000000000	0.00000000000000	0.00000000000000	0.00000000000000	
13.90327600000000	-2.75199700000000	723.31789600000002	46.82005200000000	0.14451700000000	0.00000000000000	0.11193500000000	0.00000000000000	0.00000000000000	0.00000000000000	0.00000000000000	0.00000000000000	0.00000000000000	0.00000000000000	14.38010100000000	0.00000000000000	0.00000000000000	0.00000000000000	0.00000000000000	
13.90494600000000	-3.29430000000000	724.36685799999998	46.90453700000000	0.14349200000000	0.00000000000000	0.11197100000000	0.00000000000000	0.00000000000000	0.00000000000000	0.00000000000000	0.00000000000000	0.00000000000000	0.00000000000000	14.47309300000000	0.00000000000000	0.00000000000000	0.00000000000000	0.00000000000000	
13.90661500000000	-3.84840000000000	725.42161499999997	46.98926500000000	0.14246700000000	0.00000000000000	0.11200600000000	0.00000000000000	0.00000000000000	0.00000000000000	0.00000000000000	0.00000000000000	0.00000000000000	0.00000000000000	14.56833400000000	0.00000000000000	0.00000000000000	0.00000000000000	0.00000000000000	
13.90828200000000	-4.41428300000000	726.48305500000004	47.07426000000000	0.14144400000000	0.00000000000000	0.11203900000000	0.00000000000000	0.00000000000000	0.00000000000000	0.00000000000000	0.00000000000000	0.00000000000000	0.00000000000000	14.66578200000000	0.00000000000000	0.00000000000000	0.00000000000000	0.00000000000000	
13.90994600000000	-4.99190800000000	727.55216299999995	47.15956100000000	0.14042100000000	0.00000000000000	0.11207200000000	0.00000000000000	0.00000000000000	0.00000000000000	0.00000000000000	0.00000000000000	0.00000000000000	0.00000000000000	14.76539300000000	0.00000000000000	0.00000000000000	0.00000000000000	0.00000000000000	
13.91161300000000	-5.58120500000000	728.63001099999997	47.24521800000000	0.13940000000000	0.00000000000000	0.11210300000000	0.00000000000000	0.00000000000000	0.00000000000000	0.00000000000000	0.00000000000000	0.00000000000000	0.00000000000000	14.86711500000000	0.00000000000000	0.00000000000000	0.00000000000000	0.00000000000000	
